<svg xmlns="http://www.w3.org/2000/svg" xmlns:xlink="http://www.w3.org/1999/xlink" fill="none" version="1.1" width="13.999999046325684" height="14.000015258789062" viewBox="0 0 13.999999046325684 14.000015258789062"><g style="mix-blend-mode:passthrough"><path d="M7,0C5.61553,0,4.26216,0.41054,3.11101,1.17971C1.95987,1.94888,1.06266,3.04213,0.532849,4.32122C0.00302924,5.6003,-0.135591,7.00776,0.134509,8.36563C0.404599,9.7235,1.07129,10.9708,2.05026,11.9497C3.02922,12.9287,4.2765,13.5954,5.63437,13.8655C6.99224,14.1356,8.3997,13.997,9.6788,13.4672C10.9579,12.9373,12.0511,12.0401,12.8203,10.889C13.5895,9.7378,14,8.38447,14,7C14,5.14348,13.2625,3.36301,11.9497,2.05025C10.637,0.7375,8.85652,0,7,0ZM10.4514,4.50631C10.2561,4.31105,9.93954,4.31105,9.74427,4.50631L5.94346,8.30598L4.16996,6.53298L4.10071,6.47512C3.90584,6.34013,3.63642,6.35941,3.46285,6.53298C3.26759,6.72824,3.26759,7.04482,3.46285,7.24008L5.59023,9.36746L5.65948,9.42532C5.85435,9.56031,6.12377,9.54103,6.29734,9.36746L10.4514,5.21342L10.5092,5.14417C10.6442,4.9493,10.6249,4.67988,10.4514,4.50631Z" fill-rule="evenodd" fill="#55BB8E" fill-opacity="1"/></g></svg>